<svg width="305" height="230" viewBox="0 0 305 230" fill="none" xmlns="http://www.w3.org/2000/svg">
<g clip-path="url(#clip0_0_7336)">
<mask id="mask0_0_7336" style="mask-type:luminance" maskUnits="userSpaceOnUse" x="0" y="199" width="305" height="1">
<path fill-rule="evenodd" clip-rule="evenodd" d="M0 199.351H305V199.851H0V199.351Z" fill="white"/>
</mask>
<g mask="url(#mask0_0_7336)">
<path fill-rule="evenodd" clip-rule="evenodd" d="M0 199.664H305V199.539H0V199.664Z" fill="#E4E4DE"/>
</g>
<path fill-rule="evenodd" clip-rule="evenodd" d="M243 209.976H275V209.726H243V209.976Z" fill="#E4E4DE"/>
<path fill-rule="evenodd" clip-rule="evenodd" d="M167 207.976H203V207.726H167V207.976Z" fill="#E4E4DE"/>
<path fill-rule="evenodd" clip-rule="evenodd" d="M232 206.976H244V206.726H232V206.976Z" fill="#E4E4DE"/>
<path fill-rule="evenodd" clip-rule="evenodd" d="M62 204.976H87V204.726H62V204.976Z" fill="#D0D9E6"/>
<path fill-rule="evenodd" clip-rule="evenodd" d="M49 204.976H58V204.726H49V204.976Z" fill="#D0D9E6"/>
<path fill-rule="evenodd" clip-rule="evenodd" d="M80 207.976H113V207.726H80V207.976Z" fill="#D0D9E6"/>
<path fill-rule="evenodd" clip-rule="evenodd" d="M26.4888 0.503344C24.649 0.503344 23.1528 1.99259 23.1528 3.82237V168.88C23.1528 170.711 24.649 172.199 26.4888 172.199H144.512C146.35 172.199 147.847 170.711 147.847 168.88V3.82237C147.847 1.99259 146.35 0.503344 144.512 0.503344H26.4888ZM144.512 172.351H26.4888C24.5647 172.351 23 170.795 23 168.88V3.82237C23 1.90867 24.5647 0.351318 26.4888 0.351318H144.512C146.435 0.351318 148 1.90867 148 3.82237V168.88C148 170.795 146.435 172.351 144.512 172.351Z" fill="#D0D9E6"/>
<path fill-rule="evenodd" clip-rule="evenodd" d="M159.488 0.503344C157.649 0.503344 156.153 1.99259 156.153 3.82237V168.88C156.153 170.711 157.649 172.199 159.488 172.199H277.511C279.35 172.199 280.847 170.711 280.847 168.88V3.82237C280.847 1.99259 279.35 0.503344 277.511 0.503344H159.488ZM277.511 172.351H159.488C157.565 172.351 156 170.795 156 168.88V3.82237C156 1.90867 157.565 0.351318 159.488 0.351318H277.511C279.435 0.351318 281 1.90867 281 3.82237V168.88C281 170.795 279.435 172.351 277.511 172.351Z" fill="#D0D9E6"/>
<path fill-rule="evenodd" clip-rule="evenodd" d="M71.8948 163.351H35.1052C33.3972 163.351 32 161.87 32 160.06V158.643C32 156.832 33.3972 155.351 35.1052 155.351H71.8948C73.6022 155.351 75 156.832 75 158.643V160.06C75 161.87 73.6022 163.351 71.8948 163.351Z" fill="#E3ECFA"/>
<path fill-rule="evenodd" clip-rule="evenodd" d="M43 163.351H36.918L30 200.351H36.082L43 163.351Z" fill="#DAE2F0"/>
<path fill-rule="evenodd" clip-rule="evenodd" d="M57 163.351H50.5912L47 200.351H53.4088L57 163.351Z" fill="#DAE2F0"/>
<path fill-rule="evenodd" clip-rule="evenodd" d="M62 163.351H68.0824L75 200.351H68.9182L62 163.351Z" fill="#DAE2F0"/>
<path fill-rule="evenodd" clip-rule="evenodd" d="M120 133.351H263V8.35132H120V133.351Z" fill="#DAE2F0"/>
<path fill-rule="evenodd" clip-rule="evenodd" d="M122 133.351H267V8.35132H122V133.351Z" fill="#E3ECFA"/>
<path fill-rule="evenodd" clip-rule="evenodd" d="M120 136.351H263V133.351H120V136.351Z" fill="#DDDED8"/>
<path fill-rule="evenodd" clip-rule="evenodd" d="M125 136.351H270V133.351H125V136.351Z" fill="#DAE2F0"/>
<path fill-rule="evenodd" clip-rule="evenodd" d="M128 129.351H261V13.3513H128V129.351Z" fill="#FCFEFF"/>
<path fill-rule="evenodd" clip-rule="evenodd" d="M171 129.351L195.663 13.3513H212L187.337 129.351H171Z" fill="#FFFFFE"/>
<path fill-rule="evenodd" clip-rule="evenodd" d="M152 129.351L176.662 13.3513H193L168.338 129.351H152Z" fill="#FFFFFE"/>
<path fill-rule="evenodd" clip-rule="evenodd" d="M131 14.6654V123.037C131 123.21 131.27 123.351 131.602 123.351H132.398C132.731 123.351 133 123.21 133 123.037V14.6654C133 14.4917 132.731 14.3513 132.398 14.3513H131.602C131.27 14.3513 131 14.4917 131 14.6654Z" fill="#EAEAE5"/>
<path fill-rule="evenodd" clip-rule="evenodd" d="M213 129.351L237.637 13.3513H244L219.363 129.351H213Z" fill="#FFFFFE"/>
<path fill-rule="evenodd" clip-rule="evenodd" d="M260 129.351H261V13.3513H260V129.351Z" fill="#DAE2F0"/>
<path fill-rule="evenodd" clip-rule="evenodd" d="M268 16.3513H267V13.3513H267.611L268 16.3513Z" fill="#E3ECFA"/>
<path fill-rule="evenodd" clip-rule="evenodd" d="M261 16.3513H268V13.3513H261V16.3513Z" fill="#DAE2F0"/>
<path fill-rule="evenodd" clip-rule="evenodd" d="M260 17.3513H243.995L244.69 14.3513H260V17.3513ZM237.719 17.3513H231.157L231 14.3513H238.414L237.719 17.3513Z" fill="#E3ECFA"/>
<path fill-rule="evenodd" clip-rule="evenodd" d="M244.202 16.3513H237L237.798 13.3513H245L244.202 16.3513Z" fill="#EBF3FF"/>
<path fill-rule="evenodd" clip-rule="evenodd" d="M260 16.3513H261V13.3513H260V16.3513Z" fill="#CCD3E0"/>
<path fill-rule="evenodd" clip-rule="evenodd" d="M268 29.3513H267V26.3513H267.611L268 29.3513Z" fill="#E3ECFA"/>
<path fill-rule="evenodd" clip-rule="evenodd" d="M261 29.3513H268V26.3513H261V29.3513Z" fill="#DAE2F0"/>
<path fill-rule="evenodd" clip-rule="evenodd" d="M261 29.3513H242.261L242.969 26.3513H261V29.3513ZM235.866 29.3513H232.16L232 26.3513H236.574L235.866 29.3513Z" fill="#E3ECFA"/>
<path fill-rule="evenodd" clip-rule="evenodd" d="M242.202 29.3513H235L235.798 26.3513H243L242.202 29.3513Z" fill="#EBF3FF"/>
<path fill-rule="evenodd" clip-rule="evenodd" d="M260 29.3513H261V26.3513H260V29.3513Z" fill="#CCD3E0"/>
<path fill-rule="evenodd" clip-rule="evenodd" d="M268 41.3513H267V38.3513H267.611L268 41.3513Z" fill="#E3ECFA"/>
<path fill-rule="evenodd" clip-rule="evenodd" d="M261 41.3513H268V38.3513H261V41.3513Z" fill="#DAE2F0"/>
<path fill-rule="evenodd" clip-rule="evenodd" d="M260 41.3513H239.165L239.862 38.3513H260V41.3513ZM232.87 41.3513H232.158L232 38.3513H233.568L232.87 41.3513Z" fill="#E3ECFA"/>
<path fill-rule="evenodd" clip-rule="evenodd" d="M240.202 41.3513H233L233.798 38.3513H241L240.202 41.3513Z" fill="#EBF3FF"/>
<path fill-rule="evenodd" clip-rule="evenodd" d="M260 41.3513H261V38.3513H260V41.3513Z" fill="#CCD3E0"/>
<path fill-rule="evenodd" clip-rule="evenodd" d="M268 51.3513H267V48.3513H267.611L268 51.3513Z" fill="#E3ECFA"/>
<path fill-rule="evenodd" clip-rule="evenodd" d="M261 51.3513H268V48.3513H261V51.3513Z" fill="#DAE2F0"/>
<path fill-rule="evenodd" clip-rule="evenodd" d="M261 51.3513H238L238.691 48.3513H261V51.3513Z" fill="#E3ECFA"/>
<path fill-rule="evenodd" clip-rule="evenodd" d="M237.292 51.3513H233.16L233 48.3513H238L237.292 51.3513Z" fill="#EBF3FF"/>
<path fill-rule="evenodd" clip-rule="evenodd" d="M260 51.3513H261V48.3513H260V51.3513Z" fill="#CCD3E0"/>
<path fill-rule="evenodd" clip-rule="evenodd" d="M268 62.3513H267V59.3513H267.611L268 62.3513Z" fill="#E3ECFA"/>
<path fill-rule="evenodd" clip-rule="evenodd" d="M261 62.3513H268V59.3513H261V62.3513Z" fill="#DAE2F0"/>
<path fill-rule="evenodd" clip-rule="evenodd" d="M260 62.3513H235L235.68 59.3513H260V62.3513Z" fill="#E3ECFA"/>
<path fill-rule="evenodd" clip-rule="evenodd" d="M234.301 62.3513H233.158L233 59.3513H235L234.301 62.3513Z" fill="#EBF3FF"/>
<path fill-rule="evenodd" clip-rule="evenodd" d="M260 62.3513H261V59.3513H260V62.3513Z" fill="#CCD3E0"/>
<path fill-rule="evenodd" clip-rule="evenodd" d="M268 75.3513H267V72.3513H267.611L268 75.3513Z" fill="#E3ECFA"/>
<path fill-rule="evenodd" clip-rule="evenodd" d="M261 75.3513H268V72.3513H261V75.3513Z" fill="#DAE2F0"/>
<path fill-rule="evenodd" clip-rule="evenodd" d="M260 75.3513H235.249C234.956 74.8889 234.551 74.2671 234.063 73.5674L234 72.3513H260V75.3513Z" fill="#E3ECFA"/>
<path fill-rule="evenodd" clip-rule="evenodd" d="M260 75.3513H261V72.3513H260V75.3513Z" fill="#CCD3E0"/>
<path fill-rule="evenodd" clip-rule="evenodd" d="M268 23.3513H267V20.3513H267.611L268 23.3513Z" fill="#E3ECFA"/>
<path fill-rule="evenodd" clip-rule="evenodd" d="M261 23.3513H268V20.3513H261V23.3513Z" fill="#DAE2F0"/>
<path fill-rule="evenodd" clip-rule="evenodd" d="M260 23.3513H242.641L243.343 20.3513H260V23.3513ZM236.306 23.3513H231.159L231 20.3513H237.007L236.306 23.3513Z" fill="#E3ECFA"/>
<path fill-rule="evenodd" clip-rule="evenodd" d="M243.202 23.3513H236L236.798 20.3513H244L243.202 23.3513Z" fill="#EBF3FF"/>
<path fill-rule="evenodd" clip-rule="evenodd" d="M260 23.3513H261V20.3513H260V23.3513Z" fill="#CCD3E0"/>
<path fill-rule="evenodd" clip-rule="evenodd" d="M268 35.3513H267V32.3513H267.611L268 35.3513Z" fill="#E3ECFA"/>
<path fill-rule="evenodd" clip-rule="evenodd" d="M261 35.3513H268V32.3513H261V35.3513Z" fill="#DAE2F0"/>
<path fill-rule="evenodd" clip-rule="evenodd" d="M261 35.3513H240.854L241.569 32.3513H261V35.3513ZM234.397 35.3513H232.161L232 32.3513H235.113L234.397 35.3513Z" fill="#E3ECFA"/>
<path fill-rule="evenodd" clip-rule="evenodd" d="M241.202 35.3513H234L234.798 32.3513H242L241.202 35.3513Z" fill="#EBF3FF"/>
<path fill-rule="evenodd" clip-rule="evenodd" d="M260 35.3513H261V32.3513H260V35.3513Z" fill="#CCD3E0"/>
<path fill-rule="evenodd" clip-rule="evenodd" d="M268 47.3513H267V44.3513H267.611L268 47.3513Z" fill="#E3ECFA"/>
<path fill-rule="evenodd" clip-rule="evenodd" d="M261 47.3513H268V44.3513H261V47.3513Z" fill="#DAE2F0"/>
<path fill-rule="evenodd" clip-rule="evenodd" d="M260 47.3513H237.754L238.458 44.3513H260V47.3513ZM232.019 44.7062L232 44.3513H232.102L232.019 44.7062Z" fill="#E3ECFA"/>
<path fill-rule="evenodd" clip-rule="evenodd" d="M239.235 47.3513H233.153L233 44.7062L233.091 44.3513H240L239.235 47.3513Z" fill="#EBF3FF"/>
<path fill-rule="evenodd" clip-rule="evenodd" d="M260 47.3513H261V44.3513H260V47.3513Z" fill="#CCD3E0"/>
<path fill-rule="evenodd" clip-rule="evenodd" d="M268 57.3513H267V54.3513H267.611L268 57.3513Z" fill="#E3ECFA"/>
<path fill-rule="evenodd" clip-rule="evenodd" d="M261 57.3513H268V54.3513H261V57.3513Z" fill="#DAE2F0"/>
<path fill-rule="evenodd" clip-rule="evenodd" d="M260 57.3513H236L236.685 54.3513H260V57.3513Z" fill="#E3ECFA"/>
<path fill-rule="evenodd" clip-rule="evenodd" d="M236.195 57.3513H233.183L233 54.3513H237L236.195 57.3513Z" fill="#EBF3FF"/>
<path fill-rule="evenodd" clip-rule="evenodd" d="M260 57.3513H261V54.3513H260V57.3513Z" fill="#CCD3E0"/>
<path fill-rule="evenodd" clip-rule="evenodd" d="M268 69.3513H267V66.3513H267.611L268 69.3513Z" fill="#E3ECFA"/>
<path fill-rule="evenodd" clip-rule="evenodd" d="M261 69.3513H268V66.3513H261V69.3513Z" fill="#DAE2F0"/>
<path fill-rule="evenodd" clip-rule="evenodd" d="M261 69.3513H234.062L234 68.205L234.438 66.3513H261V69.3513Z" fill="#E3ECFA"/>
<path fill-rule="evenodd" clip-rule="evenodd" d="M234.219 68.3513L234.055 66.3513H234.945L234.219 68.3513Z" fill="#E9E9E4"/>
<path fill-rule="evenodd" clip-rule="evenodd" d="M260 69.3513H261V66.3513H260V69.3513Z" fill="#CCD3E0"/>
<path fill-rule="evenodd" clip-rule="evenodd" d="M268 81.3513H267V78.3513H267.611L268 81.3513Z" fill="#E3ECFA"/>
<path fill-rule="evenodd" clip-rule="evenodd" d="M261 81.3513H268V78.3513H261V81.3513Z" fill="#DAE2F0"/>
<path fill-rule="evenodd" clip-rule="evenodd" d="M260 81.3513H236.81C236.583 80.9366 236.348 80.5278 236.109 80.123C235.758 79.5165 235.385 78.9287 235 78.3513H260V81.3513Z" fill="#E3ECFA"/>
<path fill-rule="evenodd" clip-rule="evenodd" d="M260 81.3513H261V78.3513H260V81.3513Z" fill="#CCD3E0"/>
<path fill-rule="evenodd" clip-rule="evenodd" d="M243 200.351H263V143.351H243V200.351Z" fill="#DDDED8"/>
<path fill-rule="evenodd" clip-rule="evenodd" d="M251.772 200.351H263V193.351H240L251.772 200.351Z" fill="#E3ECFA"/>
<path fill-rule="evenodd" clip-rule="evenodd" d="M187 200.351H207V143.351H187V200.351Z" fill="#DAE2F0"/>
<path fill-rule="evenodd" clip-rule="evenodd" d="M197 198.351H263V142.351H197V198.351Z" fill="#E3ECFA"/>
<path fill-rule="evenodd" clip-rule="evenodd" d="M208.228 200.351H197V193.351H220L208.228 200.351Z" fill="#E3ECFA"/>
<path fill-rule="evenodd" clip-rule="evenodd" d="M204 177.351H253V149.351H204V177.351Z" fill="#FCFEFF"/>
<path fill-rule="evenodd" clip-rule="evenodd" d="M204 195.351H253V181.351H204V195.351Z" fill="#FCFEFF"/>
<path fill-rule="evenodd" clip-rule="evenodd" d="M234.257 151.351H224.743C223.229 151.351 222 150.009 222 148.351H237C237 150.009 235.771 151.351 234.257 151.351Z" fill="#E4E4DE"/>
<path fill-rule="evenodd" clip-rule="evenodd" d="M234.257 182.351H224.743C223.229 182.351 222 181.008 222 179.351H237C237 181.008 235.772 182.351 234.257 182.351Z" fill="#E3ECFA"/>
<path fill-rule="evenodd" clip-rule="evenodd" d="M172 200.351H192V143.351H172V200.351Z" fill="#E3ECFA"/>
<path fill-rule="evenodd" clip-rule="evenodd" d="M179.772 200.351H191V193.351H168L179.772 200.351Z" fill="#E3ECFA"/>
<path fill-rule="evenodd" clip-rule="evenodd" d="M115 200.351H134V143.351H115V200.351Z" fill="#DAE2F0"/>
<path fill-rule="evenodd" clip-rule="evenodd" d="M125 198.351H191V142.351H125V198.351Z" fill="#E3ECFA"/>
<path fill-rule="evenodd" clip-rule="evenodd" d="M135.228 200.351H124V193.351H147L135.228 200.351Z" fill="#E3ECFA"/>
<path fill-rule="evenodd" clip-rule="evenodd" d="M133 177.351H182V149.351H133V177.351Z" fill="#FCFEFF"/>
<path fill-rule="evenodd" clip-rule="evenodd" d="M133 195.351H182V181.351H133V195.351Z" fill="#FCFEFF"/>
<path fill-rule="evenodd" clip-rule="evenodd" d="M162.256 151.351H152.744C151.228 151.351 150 150.009 150 148.351H165C165 150.009 163.772 151.351 162.256 151.351Z" fill="#E4E4DE"/>
<path fill-rule="evenodd" clip-rule="evenodd" d="M162.256 182.351H152.744C151.228 182.351 150 181.008 150 179.351H165C165 181.008 163.772 182.351 162.256 182.351Z" fill="#E3ECFA"/>
<path fill-rule="evenodd" clip-rule="evenodd" d="M125 143.351H263V140.351H125V143.351Z" fill="#DAE2F0"/>
<path fill-rule="evenodd" clip-rule="evenodd" d="M116 143.351H125V140.351H116V143.351Z" fill="#D4D5CF"/>
<path fill-rule="evenodd" clip-rule="evenodd" d="M52.199 147.181C51.166 124.883 50.0641 102.712 52.3199 91.5273L56 89.3513C56 89.3513 55.1934 91.4365 54.7706 125.599C54.4761 149.346 54.1325 148.056 54.1017 146.766C54.0878 146.199 54.1347 145.634 54.2717 147.181H52.199Z" fill="#DDDED8"/>
<path fill-rule="evenodd" clip-rule="evenodd" d="M56.9889 68.2197C61.6917 56.0171 72.6489 44.2339 84.5535 39.4139C89.2271 37.5213 82.4932 79.1354 65.5482 81.8174C57.2731 83.1272 54.6969 104.218 53.3017 114.351C52.8283 94.4209 52.2867 80.4228 56.9889 68.2197Z" fill="#DDDED8"/>
<path fill-rule="evenodd" clip-rule="evenodd" d="M56.2107 99.7137C59.3996 94.5662 64.6141 87.3585 72.2317 87.3513C80.8668 87.3436 73.3102 101.82 63.1604 106.443C58.2039 108.701 54.0726 115.867 53 120.351C53.0891 111.262 53.0211 104.861 56.2107 99.7137Z" fill="#DDDED8"/>
<path fill-rule="evenodd" clip-rule="evenodd" d="M47.6949 82.7302C41.842 72.5066 28.797 62.2263 14.9085 57.5491C9.45598 55.7125 8.91822 85.9959 38.3165 93.2429C47.8113 95.5833 51.6177 112.151 53.5862 120.481C53.4222 104.303 53.5472 92.9531 47.6949 82.7302Z" fill="#DAE2F0"/>
<path fill-rule="evenodd" clip-rule="evenodd" d="M51.4054 106.982C47.6395 100.487 37.4018 97.312 28.195 97.9187C24.5796 98.1564 24.1848 111.487 44.2921 116.635C50.3909 118.196 52.8517 128.648 54.1181 133.94C54.0125 123.661 55.1714 113.477 51.4054 106.982Z" fill="#DAE2F0"/>
<path fill-rule="evenodd" clip-rule="evenodd" d="M51.1884 72.2367C48.274 63.0593 39.6835 54.8335 31.799 51.4332C28.7035 50.0983 27.7519 65.317 44.6735 80.2156C49.8058 84.7352 51.4242 97.9002 52.2607 104.575C52.6444 92.6588 54.1029 81.4141 51.1884 72.2367Z" fill="#DAE2F0"/>
<path fill-rule="evenodd" clip-rule="evenodd" d="M53.2759 155.351C47.0706 155.351 41.9423 154.905 41.5856 146.633L40.5518 135.775H66L64.9662 146.633C64.6101 154.905 59.4819 155.351 53.2759 155.351Z" fill="#E3ECFA"/>
<path fill-rule="evenodd" clip-rule="evenodd" d="M64.3228 139.351H40.6772L40 134.351H65L64.3228 139.351Z" fill="#E3ECFA"/>
<path fill-rule="evenodd" clip-rule="evenodd" d="M271 221.852C271 225.994 217.946 229.351 152.5 229.351C87.0542 229.351 34 225.994 34 221.852C34 217.709 87.0542 214.351 152.5 214.351C217.946 214.351 271 217.709 271 221.852Z" fill="#E3ECFA"/>
<path fill-rule="evenodd" clip-rule="evenodd" d="M44.4952 39.3513L44 26.3829L44.5048 26.3513L45 39.3197L44.4952 39.3513Z" fill="#3F8CFF"/>
<path fill-rule="evenodd" clip-rule="evenodd" d="M44.3252 50.3513L44 43.3852L44.6748 43.3513L45 50.3168L44.3252 50.3513Z" fill="#3F8CFF"/>
<path fill-rule="evenodd" clip-rule="evenodd" d="M52.6579 151.351C52.0802 151.351 51.6044 150.899 51.5763 150.323L45.0025 15.4851C44.9726 14.8685 45.4654 14.3513 46.0841 14.3513H229.343C229.92 14.3513 230.396 14.8039 230.424 15.3802L236.998 150.218C237.027 150.835 236.535 151.351 235.916 151.351H52.6579Z" fill="#3F8CFF"/>
<path fill-rule="evenodd" clip-rule="evenodd" d="M223.887 148.351H55.4219C54.8457 148.351 54.3712 147.894 54.3438 147.312L48.0025 15.4973C47.9726 14.8741 48.4642 14.3513 49.0812 14.3513H227.431C228.008 14.3513 228.482 14.8087 228.51 15.3913L231.105 69.3231C229.837 67.7098 228.417 66.2044 227.051 65.3974C226.077 64.7458 224.923 64.3377 223.668 64.268C223.583 64.2631 223.497 64.2588 223.411 64.2545C221.196 62.0888 221.632 57.5935 222.302 54.3484L215.58 58.1416C216.09 60.3183 216.148 62.955 214.396 64.1854C214.061 64.2052 213.743 64.228 213.447 64.2551C212.346 64.3562 211.265 64.5171 210.301 64.6891C210.058 64.7329 209.819 64.7902 209.587 64.8611C208.641 65.1274 207.595 65.6631 206.461 66.5274C201.805 70.0758 198.349 77.593 198.349 77.593L199.453 78.2058C198.427 79.3487 197.362 80.4658 196.26 81.5625C195.054 82.7566 193.845 83.8903 192.531 85.133C192.496 85.1367 192.459 85.1404 192.42 85.1429C192.378 85.1454 192.333 85.1466 192.287 85.1466C192.001 85.1466 191.648 85.0998 191.267 85.0017C190.648 84.8464 189.968 84.5893 189.276 84.2663C189.315 83.4982 189.35 82.7337 189.379 81.981L194.94 81.7967C195.263 78.7705 194.822 73.7308 194.076 68.5106C193.439 63.0431 192.349 56.8174 191.188 50.4745L185.64 50.8309L184.265 22.2495C184.25 21.9487 183.989 21.7169 183.709 21.7169C183.702 21.7169 183.694 21.7175 183.686 21.7175C183.381 21.7329 183.146 21.9949 183.161 22.3032L184.537 50.9018L161.802 52.3634C161.872 52.6747 161.942 52.986 162.011 53.2961H162.01C162.011 53.3011 162.012 53.306 162.014 53.3115C162.123 53.8035 162.23 54.2942 162.336 54.7831C163.22 58.9146 163.902 62.9439 164.396 66.7962L160.69 66.2087C160.749 77.2916 159.572 87.4374 157.656 95.4108L186.946 100.97L188.845 140.454C188.86 140.753 189.104 140.986 189.396 140.986L189.424 140.985C189.728 140.97 189.964 140.708 189.949 140.399L187.887 97.5358C188.297 95.3732 188.622 92.7822 188.869 90.0506C189.066 90.1419 189.267 90.2294 189.473 90.3139C190.225 90.6147 191.061 90.8674 192.017 90.9784C192.283 91.0098 192.561 91.0271 192.848 91.0271C193.586 91.0271 194.382 90.9118 195.168 90.6258L195.578 90.476L196.079 90.0586C197.492 88.8818 199.09 87.5983 200.571 86.2526C201.869 85.0917 203.138 83.8773 204.356 82.6006C204.364 83.2676 204.378 83.9587 204.399 84.6762C204.407 85.0172 204.419 85.3685 204.433 85.7286C204.607 90.566 205.062 96.5168 205.945 103.826H210.497L208.931 109.146L212.202 110.132C212.188 110.223 212.174 110.313 212.161 110.404L215.684 111.181L215.853 111.232C217.767 120.132 220.995 135.11 223.17 145.073C223.425 146.241 223.665 147.34 223.887 148.351ZM97.9522 127.234L98.5882 140.454C98.6034 140.753 98.847 140.986 99.14 140.986L99.1674 140.985C99.472 140.97 99.7071 140.708 99.6924 140.399L99.0535 127.121L114.492 125.533C114.414 118.569 110.875 102.395 108.777 96.3337L97.6373 97.6733L96.6829 77.839L100.147 77.6503C98.5894 67.1667 97.4564 57.0954 97.1251 47.8003L95.2418 47.8737L94.0089 22.2495C93.9937 21.9487 93.7379 21.7169 93.4534 21.7169C93.4455 21.7169 93.4382 21.7175 93.4303 21.7175C93.1257 21.7329 92.89 21.9949 92.9046 22.3032L94.1369 47.9168L68.3866 48.9229C68.3232 57.4493 69.0365 68.9625 70.7322 79.255L95.5792 77.8994L96.5367 97.8058L80.3213 99.7557C83.3473 110.555 83.474 120.343 84.3133 128.637L97.9522 127.234ZM107.623 57.1176L107.622 86.787L137.19 88.5927L137.192 58.9233L107.623 57.1176ZM234 129.51C233.175 124.736 232.339 120.031 231.61 115.982L233.375 116.514L234 129.51ZM231.868 85.1953L229.075 84.5788C229.101 83.6985 229.135 82.8009 229.18 81.8904L229.648 81.4065C230.456 82.6302 231.208 83.8705 231.865 85.1226L231.868 85.1953ZM192.927 85.0307L192.999 84.9857C192.979 85.0011 192.955 85.0159 192.927 85.0307Z" fill="#F4F9FD"/>
<path d="M64.1331 28.7106L62.6143 28.7371L62.6004 27.9393L66.5198 27.8708L66.5337 28.6687L65.0149 28.6952L65.0875 32.8526L64.2056 32.868L64.1331 28.7106ZM66.1563 31.1537C66.1516 30.8877 66.1941 30.6466 66.2837 30.4304C66.3778 30.2093 66.5052 30.0204 66.6658 29.8636C66.8264 29.7068 67.018 29.5844 67.2405 29.4965C67.463 29.4086 67.7002 29.3625 67.9522 29.3581C68.2042 29.3537 68.4429 29.3915 68.6683 29.4716C68.8937 29.5517 69.0894 29.6673 69.2554 29.8184C69.4214 29.9695 69.553 30.1539 69.6501 30.3716C69.7519 30.5845 69.8051 30.824 69.8097 31.0899C69.8143 31.3559 69.7696 31.5994 69.6754 31.8204C69.5859 32.0366 69.4608 32.2232 69.3001 32.38C69.1395 32.5368 68.948 32.6592 68.7255 32.7471C68.503 32.835 68.2657 32.8811 68.0138 32.8855C67.7618 32.8899 67.5231 32.8521 67.2977 32.772C67.0722 32.6919 66.8765 32.5763 66.7105 32.4252C66.5445 32.2741 66.4107 32.0921 66.3089 31.8791C66.2118 31.6615 66.1609 31.4196 66.1563 31.1537ZM66.9961 31.139C66.9984 31.2697 67.0216 31.3953 67.0657 31.5159C67.1145 31.6364 67.1817 31.7425 67.2673 31.8344C67.3576 31.9262 67.4639 31.999 67.5862 32.0529C67.7085 32.1067 67.8466 32.1323 68.0006 32.1296C68.1546 32.127 68.2917 32.0966 68.412 32.0385C68.5324 31.9803 68.6337 31.9039 68.7161 31.8091C68.8031 31.7142 68.8666 31.6058 68.9064 31.4837C68.951 31.3616 68.9721 31.2352 68.9698 31.1046C68.9676 30.9739 68.942 30.8484 68.8932 30.7279C68.8491 30.6073 68.7819 30.5011 68.6917 30.4093C68.606 30.3175 68.5021 30.2446 68.3798 30.1907C68.2575 30.1369 68.1194 30.1113 67.9654 30.114C67.8114 30.1166 67.6743 30.147 67.5539 30.2051C67.4336 30.2633 67.3299 30.3397 67.2429 30.4346C67.1605 30.5294 67.0971 30.6379 67.0525 30.76C67.0127 30.882 66.9939 31.0084 66.9961 31.139ZM72.6868 27.7632L74.6395 27.7291C74.9662 27.7234 75.282 27.7692 75.5871 27.8666C75.8921 27.9593 76.163 28.1062 76.3999 28.3075C76.6368 28.5087 76.8279 28.7644 76.9734 29.0746C77.1187 29.3801 77.1951 29.7428 77.2024 30.1628C77.2098 30.5874 77.1346 30.9574 76.9767 31.2729C76.8235 31.5836 76.6203 31.8438 76.3673 32.0536C76.1188 32.2587 75.8392 32.4152 75.5283 32.5233C75.2221 32.6267 74.9197 32.681 74.621 32.6862L72.7733 32.7184L72.6868 27.7632ZM74.2992 31.8937C74.5745 31.8889 74.8329 31.854 75.0745 31.7891C75.3206 31.7195 75.5335 31.6178 75.7132 31.4839C75.8928 31.3455 76.0321 31.1703 76.1311 30.9586C76.2347 30.7421 76.2838 30.4822 76.2785 30.1789C76.2733 29.8803 76.2222 29.6244 76.1251 29.4114C76.0281 29.1984 75.8944 29.0281 75.7241 28.9004C75.5585 28.7679 75.3608 28.6733 75.1311 28.6167C74.906 28.5553 74.6581 28.5269 74.3875 28.5316L73.5826 28.5457L73.6413 31.9052L74.2992 31.8937ZM77.8098 30.9503C77.8051 30.6843 77.8476 30.4432 77.9372 30.2269C78.0313 30.0059 78.1587 29.817 78.3193 29.6602C78.4799 29.5034 78.6715 29.381 78.894 29.2931C79.1165 29.2052 79.3537 29.1591 79.6057 29.1547C79.8577 29.1503 80.0964 29.1881 80.3218 29.2682C80.5472 29.3483 80.7429 29.4639 80.9089 29.615C81.0749 29.7661 81.2065 29.9505 81.3036 30.1682C81.4054 30.3811 81.4586 30.6205 81.4632 30.8865C81.4678 31.1525 81.4231 31.3959 81.3289 31.617C81.2394 31.8332 81.1143 32.0198 80.9536 32.1766C80.793 32.3334 80.6015 32.4558 80.379 32.5437C80.1565 32.6316 79.9192 32.6777 79.6673 32.6821C79.4153 32.6865 79.1766 32.6487 78.9512 32.5686C78.7257 32.4885 78.53 32.3729 78.364 32.2218C78.198 32.0707 78.0642 31.8886 77.9624 31.6757C77.8653 31.458 77.8144 31.2162 77.8098 30.9503ZM78.6496 30.9356C78.6519 31.0663 78.6751 31.1919 78.7192 31.3125C78.768 31.433 78.8352 31.5391 78.9208 31.631C79.0111 31.7228 79.1174 31.7956 79.2397 31.8495C79.362 31.9033 79.5001 31.9289 79.6541 31.9262C79.8081 31.9235 79.9452 31.8931 80.0655 31.835C80.1859 31.7769 80.2872 31.7005 80.3696 31.6057C80.4566 31.5108 80.5201 31.4024 80.5599 31.2803C80.6045 31.1582 80.6256 31.0318 80.6233 30.9012C80.6211 30.7705 80.5955 30.6449 80.5467 30.5244C80.5026 30.4039 80.4354 30.2977 80.3452 30.2059C80.2595 30.1141 80.1556 30.0412 80.0333 29.9873C79.911 29.9334 79.7729 29.9079 79.6189 29.9105C79.4649 29.9132 79.3278 29.9436 79.2074 30.0017C79.0871 30.0598 78.9834 30.1363 78.8964 30.2312C78.814 30.326 78.7506 30.4344 78.706 30.5566C78.6661 30.6786 78.6474 30.805 78.6496 30.9356Z" fill="#3F8CFF"/>
<path d="M98.2376 27.6257L99.1195 27.6103L99.206 32.5655L98.3241 32.5809L98.2376 27.6257ZM100.157 29.1884L100.955 29.1745L100.965 29.7134L100.979 29.7132C101.055 29.5438 101.174 29.397 101.335 29.2729C101.496 29.144 101.717 29.0772 101.997 29.0723C102.221 29.0684 102.41 29.1024 102.566 29.1744C102.726 29.2463 102.856 29.342 102.956 29.4616C103.056 29.5812 103.128 29.72 103.173 29.8779C103.218 30.0358 103.242 30.2011 103.245 30.3737L103.282 32.4944L102.442 32.509L102.412 30.8083C102.41 30.715 102.404 30.6124 102.393 30.5006C102.381 30.3841 102.354 30.2772 102.31 30.18C102.271 30.078 102.209 29.9951 102.124 29.9312C102.038 29.8627 101.924 29.8297 101.779 29.8322C101.639 29.8346 101.52 29.8601 101.423 29.9084C101.331 29.9567 101.252 30.0211 101.189 30.1016C101.129 30.1819 101.087 30.2737 101.06 30.3768C101.034 30.48 101.022 30.5875 101.024 30.6995L101.056 32.5332L100.216 32.5479L100.157 29.1884ZM106.296 27.485L107.962 27.4559C108.2 27.4518 108.429 27.4711 108.649 27.5139C108.874 27.5567 109.071 27.6326 109.241 27.7416C109.411 27.846 109.547 27.9907 109.648 28.1756C109.754 28.3558 109.809 28.5835 109.814 28.8588C109.819 29.1714 109.77 29.4243 109.666 29.6175C109.562 29.8107 109.42 29.9625 109.24 30.073C109.06 30.1789 108.849 30.2525 108.607 30.2941C108.37 30.3356 108.12 30.3586 107.859 30.3632L107.229 30.3742L107.265 32.4249L106.383 32.4403L106.296 27.485ZM107.748 29.609C107.874 29.6068 108.004 29.5999 108.139 29.5882C108.275 29.5765 108.398 29.5463 108.509 29.4977C108.625 29.449 108.717 29.3774 108.785 29.2828C108.858 29.1882 108.893 29.0569 108.89 28.889C108.888 28.735 108.853 28.6142 108.786 28.5267C108.719 28.4345 108.634 28.366 108.53 28.3211C108.427 28.2716 108.312 28.2409 108.186 28.2291C108.06 28.2173 107.938 28.2125 107.821 28.2145L107.192 28.2255L107.216 29.6183L107.748 29.609ZM110.526 29.0074L111.366 28.9928L111.375 29.5247L111.389 29.5244C111.479 29.3268 111.609 29.1729 111.78 29.0625C111.951 28.9522 112.148 28.8951 112.372 28.8912C112.424 28.8903 112.473 28.8941 112.519 28.9026C112.571 28.9111 112.622 28.9218 112.674 28.9349L112.688 29.7468C112.618 29.7294 112.548 29.7166 112.478 29.7085C112.412 29.6956 112.346 29.6898 112.281 29.6909C112.085 29.6943 111.927 29.7344 111.807 29.8112C111.692 29.8832 111.602 29.9665 111.539 30.0609C111.479 30.1553 111.439 30.2493 111.417 30.3431C111.4 30.4367 111.392 30.5069 111.393 30.5535L111.424 32.3523L110.585 32.3669L110.526 29.0074ZM112.985 30.6448C112.98 30.3788 113.022 30.1377 113.112 29.9214C113.206 29.7004 113.334 29.5115 113.494 29.3547C113.655 29.1978 113.846 29.0755 114.069 28.9876C114.291 28.8997 114.529 28.8535 114.781 28.8491C115.032 28.8447 115.271 28.8826 115.497 28.9627C115.722 29.0427 115.918 29.1583 116.084 29.3095C116.25 29.4606 116.381 29.645 116.478 29.8627C116.58 30.0756 116.633 30.315 116.638 30.581C116.643 30.847 116.598 31.0904 116.504 31.3114C116.414 31.5277 116.289 31.7143 116.128 31.8711C115.968 32.0279 115.776 32.1503 115.554 32.2382C115.331 32.3261 115.094 32.3722 114.842 32.3766C114.59 32.381 114.351 32.3432 114.126 32.2631C113.901 32.183 113.705 32.0674 113.539 31.9163C113.373 31.7652 113.239 31.5831 113.137 31.3702C113.04 31.1525 112.989 30.9107 112.985 30.6448ZM113.824 30.6301C113.827 30.7608 113.85 30.8864 113.894 31.0069C113.943 31.1274 114.01 31.2336 114.096 31.3255C114.186 31.4172 114.292 31.4901 114.414 31.5439C114.537 31.5978 114.675 31.6234 114.829 31.6207C114.983 31.618 115.12 31.5876 115.24 31.5295C115.361 31.4714 115.462 31.395 115.544 31.3002C115.631 31.2053 115.695 31.0969 115.735 30.9748C115.779 30.8527 115.8 30.7263 115.798 30.5957C115.796 30.465 115.77 30.3394 115.722 30.2189C115.677 30.0984 115.61 29.9922 115.52 29.9004C115.434 29.8085 115.33 29.7357 115.208 29.6818C115.086 29.6279 114.948 29.6023 114.794 29.605C114.64 29.6077 114.503 29.6381 114.382 29.6962C114.262 29.7543 114.158 29.8308 114.071 29.9257C113.989 30.0205 113.925 30.1289 113.881 30.2511C113.841 30.3731 113.822 30.4995 113.824 30.6301ZM120.853 28.8272L120.906 31.8857C120.911 32.189 120.879 32.4626 120.808 32.7065C120.738 32.9551 120.625 33.1648 120.469 33.3356C120.318 33.5109 120.125 33.6473 119.888 33.7448C119.652 33.8422 119.37 33.8938 119.044 33.8995C118.731 33.905 118.434 33.8705 118.153 33.796C117.871 33.7216 117.61 33.5815 117.368 33.3757L117.86 32.681C118.031 32.832 118.208 32.948 118.391 33.0288C118.575 33.1096 118.786 33.1479 119.024 33.1437C119.224 33.1402 119.392 33.1093 119.526 33.051C119.665 32.9925 119.773 32.9136 119.851 32.8143C119.933 32.7148 119.989 32.5948 120.02 32.4543C120.055 32.3183 120.071 32.1663 120.068 31.9984L120.063 31.7534L120.049 31.7536C119.931 31.9191 119.772 32.0455 119.573 32.133C119.374 32.2158 119.169 32.2591 118.959 32.2627C118.707 32.2671 118.478 32.2268 118.271 32.1417C118.064 32.052 117.885 31.9314 117.733 31.7801C117.585 31.6286 117.47 31.4486 117.387 31.24C117.304 31.0314 117.261 30.8082 117.256 30.5702C117.252 30.3229 117.285 30.0913 117.356 29.8754C117.427 29.6594 117.534 29.4709 117.675 29.3097C117.817 29.1485 117.988 29.0219 118.187 28.9297C118.391 28.8328 118.623 28.7821 118.884 28.7775C119.122 28.7734 119.345 28.8162 119.552 28.9059C119.759 28.9956 119.925 29.1421 120.049 29.3453L120.063 29.345L120.055 28.8411L120.853 28.8272ZM119.073 29.5303C118.923 29.533 118.788 29.561 118.668 29.6144C118.547 29.6632 118.444 29.7327 118.357 29.8229C118.274 29.9083 118.208 30.0145 118.159 30.1414C118.115 30.2635 118.094 30.3992 118.096 30.5485C118.099 30.6839 118.124 30.8094 118.173 30.9253C118.226 31.041 118.298 31.1424 118.388 31.2295C118.478 31.3167 118.584 31.3848 118.707 31.434C118.829 31.4832 118.96 31.5066 119.1 31.5042C119.254 31.5015 119.391 31.4734 119.512 31.42C119.637 31.3664 119.74 31.297 119.823 31.2115C119.91 31.1213 119.976 31.0151 120.02 30.893C120.065 30.7709 120.086 30.6398 120.084 30.4998C120.078 30.2059 119.986 29.9695 119.805 29.7906C119.625 29.6117 119.38 29.525 119.073 29.5303ZM121.804 28.8106L122.643 28.7959L122.653 29.3278L122.667 29.3276C122.757 29.13 122.887 28.976 123.058 28.8657C123.228 28.7554 123.426 28.6982 123.65 28.6943C123.701 28.6934 123.75 28.6972 123.797 28.7058C123.849 28.7142 123.9 28.725 123.952 28.7381L123.966 29.5499C123.895 29.5325 123.825 29.5197 123.755 29.5116C123.69 29.4988 123.624 29.4929 123.559 29.494C123.363 29.4975 123.205 29.5376 123.085 29.6143C122.969 29.6864 122.88 29.7696 122.816 29.8641C122.757 29.9584 122.717 30.0525 122.695 30.1462C122.678 30.2399 122.67 30.31 122.671 30.3567L122.702 32.1554L121.862 32.1701L121.804 28.8106ZM125.107 30.7272C125.14 30.9787 125.241 31.1729 125.411 31.31C125.582 31.447 125.786 31.5135 126.024 31.5093C126.234 31.5057 126.408 31.4606 126.547 31.3742C126.69 31.283 126.814 31.1712 126.919 31.0386L127.529 31.4831C127.337 31.7291 127.121 31.9056 126.88 32.0125C126.639 32.1194 126.386 32.1751 126.12 32.1798C125.868 32.1842 125.629 32.1463 125.404 32.0662C125.178 31.9862 124.982 31.8706 124.816 31.7194C124.65 31.5683 124.517 31.3863 124.415 31.1734C124.318 30.9557 124.267 30.7139 124.262 30.4479C124.258 30.182 124.3 29.9408 124.39 29.7246C124.484 29.5036 124.611 29.3147 124.772 29.1578C124.932 29.001 125.124 28.8786 125.346 28.7907C125.569 28.7028 125.806 28.6567 126.058 28.6523C126.291 28.6482 126.504 28.6865 126.697 28.7672C126.895 28.8431 127.062 28.9568 127.2 29.1084C127.343 29.26 127.454 29.4494 127.532 29.6767C127.615 29.8993 127.66 30.1576 127.665 30.4515L127.669 30.6825L125.107 30.7272ZM126.818 30.0673C126.809 29.82 126.729 29.6277 126.577 29.4904C126.425 29.3483 126.216 29.2796 125.95 29.2843C125.698 29.2887 125.499 29.3645 125.352 29.5118C125.21 29.6589 125.125 29.8541 125.096 30.0973L126.818 30.0673ZM130.228 29.5947C130.06 29.3689 129.839 29.2584 129.564 29.2632C129.452 29.2652 129.343 29.2951 129.236 29.3529C129.13 29.4108 129.078 29.5027 129.08 29.6287C129.082 29.7314 129.128 29.8052 129.217 29.8503C129.306 29.8955 129.419 29.9332 129.555 29.9635C129.691 29.9938 129.836 30.0262 129.991 30.0609C130.15 30.0908 130.298 30.1419 130.435 30.2142C130.571 30.2818 130.685 30.3778 130.776 30.5022C130.866 30.6267 130.914 30.7985 130.918 31.0178C130.921 31.2185 130.88 31.3896 130.794 31.5311C130.712 31.6679 130.602 31.7795 130.463 31.8659C130.33 31.9523 130.177 32.0156 130.005 32.0559C129.833 32.0963 129.66 32.118 129.488 32.121C129.226 32.1255 128.985 32.0924 128.765 32.0216C128.544 31.9507 128.346 31.8189 128.17 31.6259L128.721 31.0912C128.83 31.2106 128.946 31.309 129.069 31.3862C129.196 31.4586 129.348 31.4933 129.526 31.4902C129.586 31.4892 129.649 31.4811 129.714 31.4659C129.779 31.4508 129.84 31.4264 129.895 31.3927C129.95 31.3591 129.994 31.3187 130.026 31.2714C130.062 31.2195 130.08 31.1608 130.079 31.0955C130.077 30.9788 130.031 30.8933 129.941 30.8389C129.852 30.7844 129.739 30.742 129.603 30.7117C129.467 30.6768 129.32 30.6467 129.16 30.6215C129.006 30.5915 128.86 30.545 128.724 30.482C128.587 30.4144 128.474 30.3207 128.383 30.201C128.292 30.0812 128.245 29.914 128.241 29.6994C128.238 29.5127 128.272 29.3511 128.345 29.2145C128.422 29.0731 128.522 28.957 128.647 28.8662C128.771 28.7753 128.915 28.7075 129.077 28.6626C129.24 28.6178 129.405 28.5939 129.573 28.5909C129.797 28.587 130.019 28.6228 130.24 28.6983C130.461 28.7691 130.64 28.8967 130.779 29.081L130.228 29.5947ZM133.338 29.5404C133.17 29.3146 132.949 29.2041 132.674 29.2089C132.562 29.2109 132.453 29.2408 132.346 29.2987C132.24 29.3565 132.188 29.4484 132.19 29.5744C132.192 29.6771 132.237 29.751 132.327 29.7961C132.416 29.8412 132.529 29.8789 132.665 29.9092C132.801 29.9395 132.946 29.972 133.101 30.0066C133.26 30.0365 133.408 30.0876 133.544 30.1599C133.681 30.2275 133.795 30.3235 133.886 30.448C133.976 30.5724 134.024 30.7443 134.028 30.9636C134.031 31.1642 133.99 31.3353 133.903 31.4768C133.822 31.6136 133.712 31.7252 133.573 31.8116C133.439 31.898 133.286 31.9613 133.115 32.0017C132.943 32.042 132.77 32.0637 132.598 32.0667C132.336 32.0712 132.095 32.0381 131.875 31.9673C131.654 31.8965 131.456 31.7646 131.28 31.5716L131.83 31.0369C131.94 31.1564 132.056 31.2547 132.179 31.3319C132.306 31.4043 132.458 31.439 132.636 31.4359C132.696 31.4349 132.759 31.4268 132.824 31.4116C132.889 31.3965 132.949 31.3721 133.005 31.3385C133.06 31.3048 133.104 31.2644 133.136 31.2172C133.172 31.1652 133.19 31.1065 133.189 31.0412C133.187 30.9246 133.141 30.839 133.051 30.7846C132.962 30.7301 132.849 30.6878 132.713 30.6575C132.577 30.6225 132.429 30.5924 132.27 30.5672C132.116 30.5372 131.97 30.4907 131.834 30.4278C131.697 30.3601 131.584 30.2664 131.493 30.1467C131.402 30.0269 131.355 29.8597 131.351 29.6451C131.348 29.4584 131.382 29.2968 131.455 29.1602C131.532 29.0188 131.632 28.9027 131.757 28.8119C131.881 28.721 132.025 28.6532 132.187 28.6083C132.35 28.5635 132.515 28.5396 132.683 28.5367C132.907 28.5327 133.129 28.5685 133.35 28.644C133.571 28.7149 133.75 28.8424 133.889 29.0267L133.338 29.5404Z" fill="#3F8CFF"/>
<path d="M145.232 27.6143L146.114 27.5989L146.201 32.5541L145.319 32.5695L145.232 27.6143ZM147.152 29.177L147.95 29.1631L147.959 29.702L147.973 29.7017C148.05 29.5324 148.168 29.3856 148.33 29.2615C148.491 29.1326 148.711 29.0658 148.991 29.0609C149.215 29.057 149.405 29.091 149.56 29.163C149.72 29.2349 149.85 29.3306 149.95 29.4502C150.05 29.5698 150.123 29.7086 150.167 29.8665C150.212 30.0244 150.236 30.1897 150.239 30.3623L150.276 32.483L149.436 32.4976L149.407 30.7969C149.405 30.7036 149.399 30.601 149.387 30.4892C149.376 30.3727 149.348 30.2658 149.305 30.1686C149.266 30.0666 149.203 29.9836 149.118 29.9198C149.033 29.8513 148.918 29.8183 148.773 29.8208C148.634 29.8232 148.515 29.8486 148.418 29.897C148.325 29.9453 148.247 30.0097 148.183 30.0901C148.124 30.1705 148.081 30.2623 148.055 30.3654C148.029 30.4686 148.017 30.5761 148.019 30.6881L148.051 32.5218L147.211 32.5365L147.152 29.177ZM153.291 27.4736L155.013 27.4435C155.251 27.4394 155.48 27.4587 155.7 27.5016C155.925 27.5396 156.124 27.6108 156.299 27.7151C156.473 27.8194 156.613 27.9617 156.719 28.1419C156.825 28.322 156.88 28.5521 156.885 28.8321C156.892 29.1914 156.796 29.4941 156.6 29.7402C156.408 29.9862 156.129 30.1381 155.761 30.1959L157.115 32.3636L156.051 32.3822L154.867 30.3025L154.223 30.3138L154.259 32.4134L153.378 32.4288L153.291 27.4736ZM154.895 29.5459C155.021 29.5437 155.147 29.5368 155.273 29.5253C155.399 29.5091 155.513 29.4791 155.615 29.4353C155.721 29.3868 155.806 29.3176 155.87 29.2279C155.934 29.1334 155.964 29.0045 155.961 28.8412C155.959 28.6966 155.926 28.5804 155.864 28.4928C155.802 28.4052 155.722 28.3413 155.623 28.301C155.524 28.2561 155.414 28.2277 155.292 28.2158C155.175 28.2038 155.061 28.1988 154.949 28.2008L154.186 28.2141L154.21 29.5579L154.895 29.5459ZM158.357 30.9557C158.389 31.2072 158.491 31.4014 158.661 31.5385C158.831 31.6755 159.036 31.742 159.274 31.7378C159.484 31.7342 159.658 31.6891 159.796 31.6027C159.939 31.5115 160.063 31.3997 160.168 31.2671L160.778 31.7116C160.587 31.9576 160.37 32.1341 160.129 32.241C159.889 32.3479 159.635 32.4036 159.369 32.4083C159.117 32.4127 158.879 32.3748 158.653 32.2947C158.428 32.2147 158.232 32.0991 158.066 31.9479C157.9 31.7968 157.766 31.6148 157.664 31.4019C157.567 31.1842 157.516 30.9424 157.512 30.6764C157.507 30.4105 157.55 30.1694 157.639 29.9531C157.733 29.7321 157.861 29.5432 158.021 29.3863C158.182 29.2295 158.373 29.1071 158.596 29.0192C158.818 28.9313 159.056 28.8852 159.308 28.8808C159.541 28.8767 159.754 28.915 159.947 28.9957C160.144 29.0716 160.312 29.1853 160.45 29.3369C160.592 29.4885 160.703 29.6779 160.782 29.9052C160.865 30.1278 160.909 30.3861 160.914 30.68L160.918 30.911L158.357 30.9557ZM160.067 30.2958C160.059 30.0485 159.978 29.8563 159.826 29.7189C159.675 29.5768 159.466 29.5081 159.2 29.5128C158.948 29.5172 158.748 29.593 158.602 29.7403C158.459 29.8874 158.374 30.0826 158.346 30.3258L160.067 30.2958ZM161.214 28.9315L162.131 28.9155L163.068 31.2515L163.082 31.2513L163.944 28.8839L164.805 28.8689L163.541 32.2514L162.645 32.2671L161.214 28.9315ZM165.313 28.86L166.153 28.8453L166.211 32.2048L165.371 32.2195L165.313 28.86ZM165.174 27.7213C165.171 27.5859 165.218 27.4684 165.315 27.3687C165.415 27.2643 165.543 27.2107 165.697 27.208C165.851 27.2054 165.98 27.2521 166.084 27.3483C166.193 27.4397 166.249 27.5578 166.252 27.7024C166.254 27.8471 166.203 27.9693 166.097 28.0692C165.996 28.1643 165.868 28.2132 165.714 28.2159C165.56 28.2186 165.431 28.1718 165.327 28.0756C165.227 27.9747 165.176 27.8566 165.174 27.7213ZM167.823 30.7905C167.855 31.042 167.957 31.2362 168.127 31.3733C168.298 31.5103 168.502 31.5768 168.74 31.5726C168.95 31.5689 169.124 31.5239 169.263 31.4375C169.406 31.3463 169.53 31.2344 169.635 31.1019L170.245 31.5463C170.053 31.7924 169.837 31.9689 169.596 32.0757C169.355 32.1826 169.102 32.2384 168.836 32.243C168.584 32.2474 168.345 32.2096 168.119 32.1295C167.894 32.0494 167.698 31.9338 167.532 31.7827C167.366 31.6316 167.232 31.4496 167.131 31.2366C167.034 31.019 166.983 30.7771 166.978 30.5112C166.973 30.2452 167.016 30.0041 167.105 29.7879C167.2 29.5668 167.327 29.3779 167.488 29.2211C167.648 29.0643 167.84 28.9419 168.062 28.854C168.285 28.7661 168.522 28.72 168.774 28.7156C169.007 28.7115 169.22 28.7498 169.413 28.8304C169.61 28.9063 169.778 29.0201 169.916 29.1717C170.059 29.3232 170.169 29.5127 170.248 29.74C170.331 29.9626 170.376 30.2208 170.381 30.5148L170.385 30.7458L167.823 30.7905ZM169.534 30.1305C169.525 29.8833 169.444 29.691 169.293 29.5536C169.141 29.4116 168.932 29.3429 168.666 29.3475C168.414 29.3519 168.215 29.4278 168.068 29.575C167.926 29.7222 167.841 29.9174 167.812 30.1606L169.534 30.1305ZM170.681 28.7663L171.591 28.7504L172.36 31.0894L172.374 31.0891L173.011 28.7256L173.921 28.7097L174.69 31.0487L174.704 31.0484L175.363 28.6846L176.21 28.6698L175.128 32.0492L174.295 32.0637L173.457 29.782L173.443 29.7822L172.776 32.0902L171.908 32.1054L170.681 28.7663Z" fill="#3F8CFF"/>
<path d="M196.246 27.8869L198.199 27.8528C198.526 27.8471 198.841 27.8929 199.146 27.9903C199.451 28.0829 199.722 28.2299 199.959 28.4311C200.196 28.6324 200.387 28.8881 200.533 29.1982C200.678 29.5038 200.754 29.8665 200.762 30.2864C200.769 30.711 200.694 31.081 200.536 31.3965C200.383 31.7072 200.18 31.9675 199.927 32.1773C199.678 32.3823 199.399 32.5389 199.088 32.647C198.782 32.7503 198.479 32.8046 198.18 32.8098L196.333 32.8421L196.246 27.8869ZM197.859 32.0173C198.134 32.0125 198.392 31.9777 198.634 31.9128C198.88 31.8432 199.093 31.7414 199.273 31.6076C199.452 31.4691 199.592 31.294 199.691 31.0822C199.794 30.8657 199.843 30.6058 199.838 30.3025C199.833 30.0039 199.782 29.7481 199.685 29.5351C199.587 29.3221 199.454 29.1517 199.284 29.024C199.118 28.8916 198.92 28.797 198.691 28.7403C198.465 28.6789 198.218 28.6506 197.947 28.6553L197.142 28.6693L197.201 32.0288L197.859 32.0173ZM201.369 31.0739C201.365 30.808 201.407 30.5669 201.497 30.3506C201.591 30.1296 201.718 29.9407 201.879 29.7838C202.039 29.627 202.231 29.5047 202.453 29.4168C202.676 29.3289 202.913 29.2827 203.165 29.2783C203.417 29.2739 203.656 29.3118 203.881 29.3918C204.107 29.4719 204.302 29.5875 204.468 29.7386C204.634 29.8898 204.766 30.0742 204.863 30.2918C204.965 30.5048 205.018 30.7442 205.023 31.0102C205.027 31.2761 204.982 31.5196 204.888 31.7406C204.799 31.9569 204.674 32.1434 204.513 32.3002C204.352 32.4571 204.161 32.5794 203.938 32.6673C203.716 32.7552 203.479 32.8014 203.227 32.8058C202.975 32.8102 202.736 32.7723 202.511 32.6923C202.285 32.6122 202.089 32.4966 201.923 32.3455C201.757 32.1943 201.624 32.0123 201.522 31.7994C201.425 31.5817 201.374 31.3399 201.369 31.0739ZM202.209 31.0593C202.211 31.1899 202.235 31.3155 202.279 31.4361C202.327 31.5566 202.395 31.6628 202.48 31.7546C202.57 31.8464 202.677 31.9192 202.799 31.9731C202.921 32.027 203.06 32.0526 203.213 32.0499C203.367 32.0472 203.505 32.0168 203.625 31.9587C203.745 31.9006 203.847 31.8241 203.929 31.7294C204.016 31.6345 204.079 31.526 204.119 31.404C204.164 31.2819 204.185 31.1555 204.183 31.0248C204.18 30.8942 204.155 30.7686 204.106 30.6481C204.062 30.5275 203.995 30.4213 203.905 30.3296C203.819 30.2377 203.715 30.1649 203.593 30.111C203.47 30.0571 203.332 30.0315 203.178 30.0342C203.024 30.0369 202.887 30.0673 202.767 30.1254C202.646 30.1835 202.543 30.26 202.456 30.3549C202.373 30.4496 202.31 30.5581 202.265 30.6802C202.226 30.8023 202.207 30.9286 202.209 31.0593ZM205.78 29.3167L206.578 29.3028L206.587 29.8417L206.601 29.8414C206.677 29.6721 206.796 29.5253 206.957 29.4011C207.118 29.2723 207.339 29.2055 207.619 29.2006C207.843 29.1967 208.032 29.2307 208.188 29.3027C208.348 29.3745 208.478 29.4703 208.578 29.5899C208.678 29.7095 208.75 29.8483 208.795 30.0062C208.84 30.1641 208.864 30.3294 208.867 30.502L208.904 32.6227L208.064 32.6373L208.034 30.9366C208.033 30.8433 208.026 30.7407 208.015 30.6289C208.004 30.5124 207.976 30.4055 207.932 30.3083C207.893 30.2063 207.831 30.1233 207.746 30.0595C207.661 29.991 207.546 29.958 207.401 29.9605C207.261 29.9629 207.143 29.9883 207.045 30.0367C206.953 30.085 206.875 30.1494 206.811 30.2298C206.751 30.3102 206.709 30.402 206.683 30.5051C206.656 30.6083 206.644 30.7158 206.646 30.8278L206.678 32.6615L205.838 32.6762L205.78 29.3167ZM210.505 31.2085C210.537 31.46 210.639 31.6542 210.809 31.7913C210.98 31.9283 211.184 31.9948 211.422 31.9906C211.632 31.987 211.806 31.9419 211.944 31.8555C212.088 31.7643 212.212 31.6525 212.317 31.5199L212.926 31.9644C212.735 32.2104 212.518 32.3869 212.278 32.4938C212.037 32.6007 211.783 32.6564 211.517 32.6611C211.265 32.6655 211.027 32.6276 210.801 32.5475C210.576 32.4675 210.38 32.3519 210.214 32.2007C210.048 32.0496 209.914 31.8676 209.813 31.6547C209.715 31.437 209.665 31.1952 209.66 30.9292C209.655 30.6633 209.698 30.4221 209.787 30.2059C209.881 29.9849 210.009 29.796 210.169 29.6391C210.33 29.4823 210.522 29.3599 210.744 29.272C210.967 29.1841 211.204 29.138 211.456 29.1336C211.689 29.1295 211.902 29.1678 212.095 29.2485C212.292 29.3244 212.46 29.4381 212.598 29.5897C212.741 29.7413 212.851 29.9307 212.93 30.158C213.013 30.3806 213.057 30.6389 213.062 30.9328L213.067 31.1638L210.505 31.2085ZM212.216 30.5486C212.207 30.3013 212.126 30.109 211.975 29.9717C211.823 29.8296 211.614 29.7609 211.348 29.7656C211.096 29.77 210.897 29.8458 210.75 29.9931C210.608 30.1402 210.522 30.3354 210.494 30.5786L212.216 30.5486Z" fill="#3F8CFF"/>
<path fill-rule="evenodd" clip-rule="evenodd" d="M189.429 140.351C189.128 140.351 188.876 140.123 188.861 139.829L183.001 23.9263C182.986 23.624 183.228 23.3669 183.542 23.3518C183.84 23.3391 184.123 23.5701 184.139 23.8737L189.999 139.776C190.014 140.079 189.771 140.336 189.457 140.351L189.429 140.351Z" fill="#3F8CFF"/>
<path fill-rule="evenodd" clip-rule="evenodd" d="M144.43 140.351C144.128 140.351 143.876 140.123 143.861 139.829L138.001 23.9263C137.986 23.624 138.228 23.3669 138.543 23.3518C138.853 23.3391 139.123 23.5707 139.139 23.8737L144.999 139.776C145.014 140.079 144.771 140.336 144.457 140.351L144.43 140.351Z" fill="#3F8CFF"/>
<path fill-rule="evenodd" clip-rule="evenodd" d="M223.446 36.3513H53.554C53.248 36.3513 53 36.1275 53 35.8513C53 35.5751 53.248 35.3513 53.554 35.3513H223.446C223.752 35.3513 224 35.5751 224 35.8513C224 36.1275 223.752 36.3513 223.446 36.3513Z" fill="#3F8CFF"/>
<path fill-rule="evenodd" clip-rule="evenodd" d="M71.2929 80.3513C69.638 70.2075 68.9419 58.8608 69.0038 50.4577L94.1341 49.4661L95.5417 79.0153L71.2929 80.3513ZM96.6189 78.9558L95.2124 49.4236L97.0504 49.3513C97.3738 58.5121 98.4794 68.4377 100 78.7698L96.6189 78.9558Z" fill="#DADFE4"/>
<path fill-rule="evenodd" clip-rule="evenodd" d="M95.6995 78.3513L94 49.393L95.3019 49.3513L97 78.293L95.6995 78.3513Z" fill="#B0C9DF"/>
<path fill-rule="evenodd" clip-rule="evenodd" d="M100 77.7693L70.9821 79.3513C69.3093 69.2077 68.265 59.3764 68 49.934L97.0185 48.3513C97.3448 57.5125 98.4624 67.438 100 77.7693Z" fill="#12499A"/>
<path fill-rule="evenodd" clip-rule="evenodd" d="M136.999 88.3513L108 86.5729L108.001 57.3513L137 59.1297L136.999 88.3513Z" fill="#DADFE4"/>
<path fill-rule="evenodd" clip-rule="evenodd" d="M135.663 87.3513L107 85.583L107.337 56.3513L136 58.119L135.663 87.3513Z" fill="#FFFFFE"/>
<path fill-rule="evenodd" clip-rule="evenodd" d="M189.282 82.3513C189.301 81.8975 189.317 81.4479 189.331 81.0036L194.438 80.7513C194.775 77.7458 194.56 73.8658 194.02 69.4742C194.772 74.4645 195.217 79.2822 194.892 82.1751L189.282 82.3513ZM164.309 67.8695L164.079 67.8353C163.58 64.1527 162.892 60.3009 162 56.3513C162.908 60.3245 163.701 64.1869 164.309 67.8695Z" fill="#DADFE4"/>
<path fill-rule="evenodd" clip-rule="evenodd" d="M165.106 83.3513L193.839 81.8772C194.576 75.0627 192.669 63.9041 190.522 52.3513L161 54.2208C163.461 65.0292 165.235 75.1475 165.106 83.3513Z" fill="#6D5DD3"/>
<path fill-rule="evenodd" clip-rule="evenodd" d="M83.9721 128.351C83.137 120.391 83.0109 110.999 80 100.635L96.1345 98.764L97.543 127.005L83.9721 128.351ZM98.6388 126.896L97.2297 98.6368L108.313 97.3513C110.401 103.168 113.922 118.689 114 125.373L98.6388 126.896Z" fill="#DADFE4"/>
<path fill-rule="evenodd" clip-rule="evenodd" d="M97.6873 127.351L96 98.4813L97.312 98.3513L99 127.24L97.6873 127.351Z" fill="#B0C9DF"/>
<path fill-rule="evenodd" clip-rule="evenodd" d="M84.9497 127.351L113.965 124.238C114.324 117.491 111.834 106.609 109.085 95.3513L80 98.7638C82.3552 109.3 84.6326 119.27 84.9497 127.351Z" fill="#FDC748"/>
<path fill-rule="evenodd" clip-rule="evenodd" d="M187.622 101.351L159 95.9138C160.873 88.115 162.023 78.1914 161.965 67.3513L165.587 67.9259C166.316 73.6095 166.624 78.9011 166.552 83.5548L180.96 83.0779C181.326 83.5825 181.681 84.0317 182.067 84.4888C182.489 84.9911 182.918 85.4909 183.372 85.9709C184.281 86.9302 185.258 87.8419 186.344 88.6921C186.57 88.8651 186.801 89.037 187.038 89.2064L187.622 101.351ZM188.542 97.9922L188.155 89.9468C188.579 90.2049 189.025 90.4485 189.502 90.671C189.26 93.3427 188.943 95.877 188.542 97.9922ZM189.899 85.0134C189.602 84.8747 189.303 84.7233 189.006 84.563C188.626 84.361 188.245 84.1451 187.865 83.9172L187.814 82.8505L190 82.7782C189.971 83.5144 189.938 84.2621 189.899 85.0134ZM186.75 83.219C186.59 83.1146 186.43 83.0085 186.27 82.9018L186.734 82.8861L186.75 83.219Z" fill="#DADFE4"/>
<path fill-rule="evenodd" clip-rule="evenodd" d="M187.069 102.351L186.983 102.335L186.337 89.2166C186.732 89.4921 187.142 89.7611 187.572 90.0164L188 98.7067C187.726 100.118 187.417 101.356 187.069 102.351ZM187.251 83.5035C186.84 83.2625 186.428 83.0104 186.018 82.7493L186 82.3897L187.195 82.3513L187.251 83.5035Z" fill="#B0C9DF"/>
<path fill-rule="evenodd" clip-rule="evenodd" d="M164.947 84.3513C165.017 79.2894 164.715 73.5335 164 67.3513L164.218 67.3894C165.033 73.161 165.498 78.5364 165.431 83.3105L180.097 82.4631L178.967 83.6522C179.006 83.7132 179.044 83.7728 179.084 83.8325L164.947 84.3513ZM184.293 83.641C184.226 83.5905 184.158 83.54 184.091 83.4895C183.586 83.1222 183.08 82.7235 182.583 82.3195L184.687 82.1981L184.749 83.624L184.293 83.641ZM185.808 83.5853L185.746 82.1365L188 82.0066C187.987 82.5011 187.971 83.0015 187.953 83.5066L185.808 83.5853Z" fill="#719CC6"/>
<path fill-rule="evenodd" clip-rule="evenodd" d="M186.055 82.3513L186 81.3928L186.944 81.3513L187 82.3253L186.055 82.3513Z" fill="#83A9CE"/>
<path fill-rule="evenodd" clip-rule="evenodd" d="M165.22 82.3513C165.287 77.8535 164.819 72.789 164 67.3513L187.874 71.2825C188.018 73.5107 188.044 77.1089 187.925 81.1229L185.657 81.2452L184.592 81.3033L182.476 81.4176C182.026 81.0741 181.583 80.7268 181.154 80.3913L179.975 81.553L165.22 82.3513Z" fill="#3769A4"/>
<path fill-rule="evenodd" clip-rule="evenodd" d="M159 93.6495L186.89 98.3513C189.05 92.0916 189.598 81.1807 190 69.8478L161.269 65.3513C161.326 76.0492 160.873 85.9527 159 93.6495Z" fill="#FFFFFE"/>
<path fill-rule="evenodd" clip-rule="evenodd" d="M227.14 68.3513C227.758 68.9734 228.28 69.5245 228.813 70.1305C229.344 70.723 229.862 71.3222 230.371 71.9301C231.386 73.1459 232.357 74.3975 233.276 75.6953C234.186 77.0018 235.082 78.3206 235.875 79.7271C236.683 81.1249 237.44 82.5635 238.06 84.1125L238.299 84.6871L238.358 84.8333L238.433 85.0444L238.576 85.469C238.651 85.7375 238.713 85.9979 238.769 86.2552C238.811 86.5002 238.86 86.752 238.89 86.989C239.007 87.9382 239.015 88.8047 238.986 89.6427C238.934 91.3146 238.697 92.8827 238.425 94.4237C237.844 97.5039 237.012 100.429 235.932 103.351L232.534 102.607C232.786 99.7028 233.018 96.7417 233.103 93.8905C233.154 92.4668 233.132 91.0535 233.033 89.7427C232.981 89.0892 232.888 88.464 232.758 87.9407L232.66 87.5753L232.552 87.2822L232.184 86.5687C230.949 84.1792 229.312 81.8285 227.569 79.5494C226.692 78.4089 225.771 77.2882 224.839 76.1755C224.375 75.6182 223.9 75.0677 223.418 74.5264L222 72.949L227.14 68.3513Z" fill="#BE5B52"/>
<path fill-rule="evenodd" clip-rule="evenodd" d="M233.476 101.351L231 103.764L235.832 106.351C235.832 106.351 237.503 104.334 236.848 102.271L233.476 101.351Z" fill="#BD5B52"/>
<path fill-rule="evenodd" clip-rule="evenodd" d="M228 107.871L232.678 109.351L236 106.907L231.196 104.351L228 107.871Z" fill="#BD5B52"/>
<path fill-rule="evenodd" clip-rule="evenodd" d="M239.912 117.351L212 111.263C213.49 101.471 215.479 92.1303 218.088 83.3513L246 89.4386C243.535 97.9748 241.587 107.422 239.912 117.351Z" fill="#3769A4"/>
<path fill-rule="evenodd" clip-rule="evenodd" d="M235.969 118.351L209 110.32L217.031 83.3513L244 91.382L235.969 118.351Z" fill="#FFFFFE"/>
<path fill-rule="evenodd" clip-rule="evenodd" d="M209.998 48.8651C209.976 49.1412 209.735 49.3587 209.459 49.3511C209.184 49.3445 208.979 49.1145 209.002 48.8385C209.024 48.5624 209.265 48.3443 209.541 48.3515C209.816 48.3591 210.021 48.589 209.998 48.8651Z" fill="#132529"/>
<path fill-rule="evenodd" clip-rule="evenodd" d="M211 49.3513C211 49.3513 210.013 51.7261 209 52.8479C209.643 53.5686 210.807 53.3038 210.807 53.3038L211 49.3513Z" fill="#A92D2F"/>
<path fill-rule="evenodd" clip-rule="evenodd" d="M211.828 49.3484L211.956 49.2565C212.025 49.1494 212.012 48.9946 211.925 48.9099C211.06 48.0684 210.176 48.423 210.139 48.4389C210.033 48.483 209.976 48.6234 210.01 48.7522C210.045 48.8802 210.159 48.9483 210.262 48.9056C210.291 48.8947 210.984 48.6277 211.673 49.2985C211.718 49.3426 211.775 49.3585 211.828 49.3484Z" fill="#132529"/>
<path fill-rule="evenodd" clip-rule="evenodd" d="M221.879 55.3513C221.203 58.5477 220.762 62.9756 223 65.1088C223 65.1088 222.073 68.3513 216.056 68.3513C209.439 68.3513 212.91 65.5059 212.91 65.5059C215.671 64.6631 215.687 61.5711 215.09 59.0876L221.879 55.3513Z" fill="#BD5B52"/>
<path fill-rule="evenodd" clip-rule="evenodd" d="M207.716 215.521C207.638 215.521 207.564 215.526 207.499 215.54C207.395 215.561 207.323 215.6 207.278 215.659C207.197 215.765 207.224 215.817 207.253 215.848C207.469 216.08 208.666 216.086 209.548 215.991C209.112 215.82 208.27 215.521 207.716 215.521ZM208.456 216.218C207.848 216.218 207.262 216.154 207.069 215.947C207.001 215.875 206.949 215.751 207.085 215.575C207.16 215.476 207.281 215.409 207.443 215.376C208.234 215.212 209.877 215.929 209.946 215.96L210 216.047L209.91 216.117C209.607 216.163 209.021 216.218 208.456 216.218Z" fill="#3769A4"/>
<path fill-rule="evenodd" clip-rule="evenodd" d="M208.585 214.561L208.509 214.564C208.279 214.583 208.262 214.657 208.258 214.682C208.194 214.981 209.057 215.732 209.716 216.058C209.652 215.712 209.471 215 209.026 214.697C208.892 214.605 208.747 214.561 208.585 214.561ZM209.871 216.351L209.82 216.342C209.173 216.103 207.9 215.147 208.006 214.648C208.031 214.531 208.135 214.385 208.486 214.356C208.748 214.334 208.983 214.394 209.191 214.535C209.868 214.996 209.995 216.186 210 216.237L209.946 216.332L209.871 216.351Z" fill="#3769A4"/>
<path fill-rule="evenodd" clip-rule="evenodd" d="M214 216.351H209.327L209 205.351H213.673L214 216.351Z" fill="#BD5B52"/>
<path fill-rule="evenodd" clip-rule="evenodd" d="M210.649 215.351H215.728C215.918 215.351 216.08 215.477 216.119 215.652L216.985 219.561C217.075 219.966 216.744 220.35 216.305 220.343C214.474 220.313 211.828 220.212 209.526 220.212C206.834 220.212 205.136 220.351 201.979 220.351C200.07 220.351 199.564 218.526 200.366 218.361C204.014 217.608 206.356 217.528 209.525 215.694C209.869 215.495 210.248 215.351 210.649 215.351Z" fill="#0A1629"/>
<path fill-rule="evenodd" clip-rule="evenodd" d="M225.515 65.3516C229.888 65.3984 236 76.4571 236 76.4571L229.223 83.3513C229.223 83.3513 224.781 81.2893 222.313 76.2581C219.728 70.9868 221.044 65.3036 225.515 65.3516Z" fill="#3769A4"/>
<path fill-rule="evenodd" clip-rule="evenodd" d="M229.077 83.3513C229.227 80.117 229.494 76.7125 229.937 73.2551C229.978 72.9298 229.999 72.6064 229.999 72.2874C230 69.8461 228.822 67.638 227 66.3513C230.787 68.7132 235 76.8897 235 76.8897L234.073 77.9007L229.077 83.3513Z" fill="#3A81EB"/>
<path fill-rule="evenodd" clip-rule="evenodd" d="M205.859 69.8467C204.931 74.5518 204.266 84.2138 206.549 103.351H229.285C229.459 100.251 227.998 86.7216 229.938 72.1953C230.462 68.2747 227.595 64.7276 223.739 64.5097C223.656 64.5048 223.573 64.5006 223.49 64.4963C220.587 64.3529 216.382 64.2585 213.825 64.497C212.757 64.5962 211.709 64.7542 210.774 64.9231C208.305 65.3704 206.356 67.3286 205.859 69.8467Z" fill="#3769A4"/>
<path fill-rule="evenodd" clip-rule="evenodd" d="M229.284 104.351H206.541C205.685 96.9908 205.243 90.9979 205.074 86.1263C207.363 85.5197 209.96 83.3921 210.859 80.7729C212.903 78.5969 215.454 75.1575 215.694 71.3586C215.707 71.1513 215.714 70.9458 215.714 70.7421C215.713 67.5809 214.145 64.9051 211.433 64.9051C211.008 64.9051 210.554 64.9709 210.074 65.1112C210.3 65.0398 210.532 64.9821 210.768 64.938C211.703 64.7648 212.751 64.6028 213.819 64.5009C214.948 64.3929 216.397 64.3513 217.914 64.3513C219.835 64.3513 221.864 64.4184 223.487 64.5003C223.57 64.5047 223.653 64.509 223.737 64.514C227.289 64.7201 230.002 67.8218 230 71.4511C229.999 71.7628 229.979 72.0788 229.938 72.3966C229.144 78.4932 228.919 84.4177 228.919 89.5092C228.919 96.1309 229.299 101.342 229.299 103.684C229.299 103.942 229.294 104.165 229.284 104.351ZM205.041 85.0665C205.021 84.3439 205.008 83.6479 205 82.9762C205.02 82.9545 205.04 82.9327 205.06 82.911C205.025 83.5784 205.024 84.2979 205.041 85.0665Z" fill="#3F8CFF"/>
<path fill-rule="evenodd" clip-rule="evenodd" d="M204.528 87.3513C204.505 87.0092 204.485 86.6753 204.472 86.3513C204.488 86.6788 204.507 87.0127 204.528 87.3513Z" fill="#9AA9B8"/>
<path fill-rule="evenodd" clip-rule="evenodd" d="M204.053 87.3513C204.038 86.9491 204.025 86.5525 204.014 86.1636C203.992 85.3021 203.994 84.4957 204.036 83.7477C204.235 83.5445 204.434 83.34 204.631 83.134C204.808 82.9489 204.986 82.7631 205.162 82.576L207.897 84.0462C207.897 84.0462 209.303 83.0373 211 81.3513C209.921 84.287 206.801 86.6715 204.053 87.3513Z" fill="#3576D6"/>
<path fill-rule="evenodd" clip-rule="evenodd" d="M214.187 210.351H214.185L214 205.351H214.003L214.187 210.351Z" fill="#BEBFBB"/>
<path fill-rule="evenodd" clip-rule="evenodd" d="M214 211.351H209.173V211.341L209 205.351H213.826L214 211.351Z" fill="#914642"/>
<path fill-rule="evenodd" clip-rule="evenodd" d="M222.957 49.288C222.446 53.8265 222.373 56.5055 220.002 58.7476C216.437 62.119 211.052 59.8079 210.227 55.2228C209.484 51.0958 210.445 44.3682 214.897 42.7387C219.283 41.1335 223.469 44.7502 222.957 49.288Z" fill="#BD5B52"/>
<path fill-rule="evenodd" clip-rule="evenodd" d="M213.478 51.5184C212.076 51.8243 211.441 48.6385 212.869 47.4151C211.599 46.8034 209.762 45.9177 209.15 44.586C208.447 43.0568 210.356 41.2217 211.996 41.2981C211.467 40.2784 212.641 37.5497 215.984 38.5798C219.406 39.6331 220.911 41.196 220.911 41.196C220.911 41.196 222.016 37.6622 224.344 40.5164C226.412 43.0531 225.593 45.2197 225.593 45.2197C225.593 45.2197 228.663 48.0268 227.869 50.1164C227.075 52.2066 225.329 52.9455 225.329 52.9455C225.329 52.9455 225.793 57.8574 222.06 59.0374C218.326 60.218 215.975 57.7883 216.287 56.3863C213.874 56.5142 211.414 53.4043 213.478 51.5184Z" fill="#233862"/>
<path fill-rule="evenodd" clip-rule="evenodd" d="M215.977 50.5439C215.809 51.849 215.125 53.047 214.348 53.8109C213.18 54.9596 212.099 54.1379 212.008 52.6496C211.926 51.3099 212.436 49.0978 213.809 48.5072C215.161 47.9258 216.168 49.0513 215.977 50.5439Z" fill="#BD5B52"/>
<path fill-rule="evenodd" clip-rule="evenodd" d="M252 209.885L247.99 211.351L244 200.819L248.01 199.351L252 209.885Z" fill="#BD5B52"/>
<path fill-rule="evenodd" clip-rule="evenodd" d="M245.512 212.387C245.443 212.442 245.384 212.501 245.339 212.561C245.267 212.658 245.239 212.753 245.253 212.853C245.278 213.031 245.35 213.073 245.402 213.089C245.804 213.208 246.862 212.385 247.551 211.664C247.011 211.768 245.999 212.004 245.512 212.387ZM246.798 212.684C246.263 213.106 245.69 213.438 245.331 213.331C245.206 213.294 245.047 213.187 245.006 212.889C244.983 212.722 245.027 212.56 245.14 212.409C245.687 211.672 247.784 211.365 247.873 211.351L248 211.416L247.985 211.559C247.76 211.823 247.295 212.292 246.798 212.684Z" fill="#3769A4"/>
<path fill-rule="evenodd" clip-rule="evenodd" d="M245.461 210.618L245.4 210.652C245.224 210.759 245.27 210.813 245.285 210.831C245.471 211.049 246.785 211.173 247.591 211.111C247.262 210.914 246.545 210.533 245.935 210.524C245.751 210.52 245.595 210.552 245.461 210.618ZM247.953 211.234L247.903 211.249C247.176 211.363 245.359 211.277 245.05 210.913C244.978 210.828 244.948 210.692 245.216 210.528C245.416 210.406 245.659 210.347 245.943 210.352C246.873 210.367 247.925 211.077 247.969 211.107L248 211.19L247.953 211.234Z" fill="#3769A4"/>
<path fill-rule="evenodd" clip-rule="evenodd" d="M246.368 210.34L250.077 207.434C250.215 207.325 250.416 207.324 250.559 207.43L253.747 209.8C254.077 210.046 254.087 210.516 253.762 210.762C252.405 211.788 249.787 213.89 248.188 215.305C246.318 216.96 247.773 215.854 245.581 217.795C244.255 218.968 242.633 218.015 243.074 217.407C245.084 214.643 245.511 212.998 245.77 211.235C245.823 210.875 246.074 210.569 246.368 210.34Z" fill="#0A1629"/>
<path fill-rule="evenodd" clip-rule="evenodd" d="M183 81.2281L181.12 77.3513L176 80.3857C176 80.3857 177.687 83.6874 181.18 83.3233L183 81.2281Z" fill="#BD5B52"/>
<path fill-rule="evenodd" clip-rule="evenodd" d="M176.838 76.779L175.613 77.8346C174.818 78.5195 174.793 79.7414 175.557 80.4592L176.509 81.3513L182 77.9572L178.705 76.5015C178.081 76.2268 177.355 76.3344 176.838 76.779Z" fill="#BD5B52"/>
<path fill-rule="evenodd" clip-rule="evenodd" d="M246.065 206.351L246 206.188L246.065 206.351ZM249.998 204.966L248.969 202.352L248.971 202.351L250 204.966L249.998 204.966Z" fill="#BEBFBB"/>
<path fill-rule="evenodd" clip-rule="evenodd" d="M245.844 207.351L245.775 207.147L245 204.814L248.913 202.351L250 205.62L245.844 207.351Z" fill="#914642"/>
<path fill-rule="evenodd" clip-rule="evenodd" d="M214 104.351C214 104.351 221.44 138.199 224.287 150.763C227.404 164.523 243.801 206.351 243.801 206.351L251 202.496C251 202.496 243.299 169.679 237.67 151.776C235.629 136.977 229.389 104.351 229.389 104.351H214Z" fill="#0A1629"/>
<path fill-rule="evenodd" clip-rule="evenodd" d="M241 203.131L242.565 206.351L252 202.49L251.249 199.351L241 203.131Z" fill="#3F8CFF"/>
<path fill-rule="evenodd" clip-rule="evenodd" d="M223.614 151.351C223.539 151.008 223.461 150.675 223.385 150.351C223.387 150.352 223.388 150.352 223.39 150.353C223.461 150.652 223.536 150.958 223.615 151.27C223.614 151.298 223.614 151.325 223.614 151.351Z" fill="#A0A29F"/>
<path fill-rule="evenodd" clip-rule="evenodd" d="M223.568 151.146C223.567 151.145 223.565 151.145 223.563 151.144C223.518 150.944 223.473 150.748 223.431 150.556H223.433C223.477 150.749 223.521 150.946 223.568 151.146Z" fill="#939692"/>
<path fill-rule="evenodd" clip-rule="evenodd" d="M223.905 151.351H223.904C223.898 151.331 223.892 151.311 223.887 151.291C223.642 150.389 223.379 149.406 223.094 148.351H223.097C223.38 149.406 223.646 150.39 223.89 151.293C223.895 151.312 223.9 151.332 223.905 151.351Z" fill="#1D5697"/>
<path fill-rule="evenodd" clip-rule="evenodd" d="M224 148.351H223.998C223.69 147.426 223.355 146.42 223 145.351C223.355 146.42 223.69 147.425 224 148.351Z" fill="#8593A0"/>
<path fill-rule="evenodd" clip-rule="evenodd" d="M224.991 151.351C224.942 151.159 224.896 150.971 224.852 150.788C224.823 150.669 224.796 150.551 224.769 150.435C224.766 150.421 224.763 150.407 224.759 150.393C224.609 149.74 224.446 149.027 224.272 148.264C224.047 147.282 223.804 146.216 223.547 145.082C221.953 138.061 219.801 128.469 218 120.434C218.178 120.378 218.37 120.351 218.57 120.351C218.676 120.351 218.784 120.358 218.894 120.373C224.456 121.094 225.092 140.137 224.991 151.351Z" fill="black"/>
<path fill-rule="evenodd" clip-rule="evenodd" d="M205.685 104.351C205.685 104.351 203.712 137.258 204.036 150.68C204.372 164.641 208.506 210.351 208.506 210.351H216.367C216.367 210.351 217.652 165.456 218.187 151.745C218.77 136.799 222 104.351 222 104.351H205.685Z" fill="#0A1629"/>
<path fill-rule="evenodd" clip-rule="evenodd" d="M206 206.351L206.392 209.351H215.711L216 206.674L206 206.351Z" fill="#3F8CFF"/>
<path fill-rule="evenodd" clip-rule="evenodd" d="M212 72.631C210.999 74.4389 209.853 76.1503 208.648 77.8011C207.427 79.4403 206.108 80.991 204.723 82.4629C203.343 83.939 201.891 85.332 200.401 86.6541C198.931 87.978 197.346 89.2407 195.944 90.3984L195.447 90.809L195.04 90.9563C193.958 91.3469 192.857 91.4142 191.915 91.3032C190.966 91.194 190.137 90.9454 189.391 90.6495C187.899 90.0472 186.698 89.2407 185.586 88.4001C184.484 87.545 183.492 86.628 182.57 85.6632C182.109 85.1804 181.673 84.6777 181.245 84.1725C180.81 83.6631 180.415 83.1634 180 82.5866L182.383 80.347C183.313 81.0408 184.308 81.7903 185.302 82.4362C186.291 83.0997 187.291 83.7225 188.289 84.2471C189.277 84.7759 190.287 85.2041 191.17 85.4236C191.61 85.5358 192.012 85.5795 192.315 85.5625C192.622 85.5419 192.799 85.4764 192.888 85.4079L191.985 85.9658C193.459 84.5788 194.793 83.3459 196.124 82.0402C197.44 80.7418 198.703 79.413 199.908 78.0473C201.103 76.6737 202.256 75.2758 203.317 73.8239C204.389 72.3787 205.352 70.8717 206.277 69.3513L212 72.631Z" fill="#BE5B52"/>
<path fill-rule="evenodd" clip-rule="evenodd" d="M215.979 71.0618C215.538 77.742 207.906 83.3513 207.906 83.3513L198 77.8983C198 77.8983 201.649 70.0263 206.564 66.3104C212.635 61.7199 216.314 65.9773 215.979 71.0618Z" fill="#3769A4"/>
<path fill-rule="evenodd" clip-rule="evenodd" d="M207.906 83.3513L199.165 78.54L198 77.8983C198 77.8983 201.649 70.0264 206.564 66.3106C208.387 64.9323 209.994 64.3513 211.342 64.3513C214.293 64.3513 215.999 67.1337 216 70.4208C216 70.6326 215.993 70.8463 215.979 71.0619C215.538 77.7421 207.906 83.3513 207.906 83.3513Z" fill="#3F8CFF"/>
</g>
<defs>
<clipPath id="clip0_0_7336">
<rect width="305" height="230" fill="white"/>
</clipPath>
</defs>
</svg>
