<svg width="166" height="40" viewBox="0 0 166 40" fill="none" xmlns="http://www.w3.org/2000/svg">
<rect width="40" height="40" rx="12" fill="#3F8CFF"/>
<mask id="mask0_0_1" style="mask-type:luminance" maskUnits="userSpaceOnUse" x="0" y="0" width="40" height="40">
<rect width="40" height="40" rx="12" fill="white"/>
</mask>
<g mask="url(#mask0_0_1)">
</g>
<path fill-rule="evenodd" clip-rule="evenodd" d="M14.4999 20C13.1249 20 12 18.875 12 17.5002C12 16.125 13.1249 15 14.4999 15C15.8749 15 17 16.125 17 17.5002C17 18.875 15.8749 20 14.4999 20Z" fill="white"/>
<path fill-rule="evenodd" clip-rule="evenodd" d="M34 14.3133C34 10.291 30.625 7 26.5 7H26.4998C22.375 7 19 10.291 19 14.3133V25C19 25 33.9986 23.3717 34 14.3143C34 14.314 34 14.3136 34 14.3133Z" fill="white"/>
<path fill-rule="evenodd" clip-rule="evenodd" d="M11.5 30.1062C10.705 30.1062 10.0547 29.4815 10.0547 28.7182C10.0547 27.9547 10.705 27.3302 11.5 27.3302C12.2948 27.3302 12.9451 27.9547 12.9451 28.7182C12.9451 29.4815 12.2948 30.1062 11.5 30.1062ZM6 28.717C6 28.7173 6 28.7178 6 28.7182C6 31.6231 8.47491 34 11.5 34C14.5249 34 17 31.6231 17 28.7182V21C17 21 6.00144 22.176 6 28.717Z" fill="white"/>
<path d="M75.26 11.9H77.72L72.74 26H70.64L67.1 15.86L63.54 26H61.44L56.48 11.9H59.08L62.58 22.4L66.26 11.9H68.08L71.66 22.46L75.26 11.9ZM82.8147 26.16C81.8147 26.16 80.9347 25.9533 80.1747 25.54C79.428 25.1267 78.848 24.5333 78.4347 23.76C78.0214 22.9867 77.8147 22.0867 77.8147 21.06C77.8147 20.0333 78.0214 19.14 78.4347 18.38C78.848 17.6067 79.428 17.0133 80.1747 16.6C80.9347 16.1867 81.8147 15.98 82.8147 15.98C83.8147 15.98 84.688 16.1867 85.4347 16.6C86.1947 17.0133 86.7747 17.6067 87.1747 18.38C87.588 19.14 87.7947 20.0333 87.7947 21.06C87.7947 22.0867 87.588 22.9867 87.1747 23.76C86.7747 24.5333 86.1947 25.1267 85.4347 25.54C84.688 25.9533 83.8147 26.16 82.8147 26.16ZM82.7947 24.22C83.608 24.22 84.228 23.9533 84.6547 23.42C85.0814 22.8867 85.2947 22.1 85.2947 21.06C85.2947 20.0333 85.0814 19.2533 84.6547 18.72C84.228 18.1733 83.6147 17.9 82.8147 17.9C82.0147 17.9 81.3947 18.1733 80.9547 18.72C80.528 19.2533 80.3147 20.0333 80.3147 21.06C80.3147 22.1 80.528 22.8867 80.9547 23.42C81.3814 23.9533 81.9947 24.22 82.7947 24.22ZM94.3186 26.16C93.3186 26.16 92.4386 25.9533 91.6786 25.54C90.9319 25.1267 90.3519 24.5333 89.9386 23.76C89.5253 22.9867 89.3186 22.0867 89.3186 21.06C89.3186 20.0333 89.5253 19.14 89.9386 18.38C90.3519 17.6067 90.9319 17.0133 91.6786 16.6C92.4386 16.1867 93.3186 15.98 94.3186 15.98C95.3186 15.98 96.1919 16.1867 96.9386 16.6C97.6986 17.0133 98.2786 17.6067 98.6786 18.38C99.0919 19.14 99.2986 20.0333 99.2986 21.06C99.2986 22.0867 99.0919 22.9867 98.6786 23.76C98.2786 24.5333 97.6986 25.1267 96.9386 25.54C96.1919 25.9533 95.3186 26.16 94.3186 26.16ZM94.2986 24.22C95.1119 24.22 95.7319 23.9533 96.1586 23.42C96.5853 22.8867 96.7986 22.1 96.7986 21.06C96.7986 20.0333 96.5853 19.2533 96.1586 18.72C95.7319 18.1733 95.1186 17.9 94.3186 17.9C93.5186 17.9 92.8986 18.1733 92.4586 18.72C92.0319 19.2533 91.8186 20.0333 91.8186 21.06C91.8186 22.1 92.0319 22.8867 92.4586 23.42C92.8853 23.9533 93.4986 24.22 94.2986 24.22ZM107.803 18.06L106.343 18.2C104.689 18.3733 103.863 19.2133 103.863 20.72V26H101.363V16.22H103.743V17.94C104.249 16.7667 105.296 16.1267 106.883 16.02L107.643 15.96L107.803 18.06ZM118.819 26H115.719L111.519 21.54V26H109.019V11.9H111.519V20.5L115.459 16.24H118.499L114.099 20.92L118.819 26ZM126.181 18.06L124.721 18.2C123.068 18.3733 122.241 19.2133 122.241 20.72V26H119.741V16.22H122.121V17.94C122.628 16.7667 123.675 16.1267 125.261 16.02L126.021 15.96L126.181 18.06ZM131.662 26.16C130.662 26.16 129.782 25.9533 129.022 25.54C128.276 25.1267 127.696 24.5333 127.282 23.76C126.869 22.9867 126.662 22.0867 126.662 21.06C126.662 20.0333 126.869 19.14 127.282 18.38C127.696 17.6067 128.276 17.0133 129.022 16.6C129.782 16.1867 130.662 15.98 131.662 15.98C132.662 15.98 133.536 16.1867 134.282 16.6C135.042 17.0133 135.622 17.6067 136.022 18.38C136.436 19.14 136.642 20.0333 136.642 21.06C136.642 22.0867 136.436 22.9867 136.022 23.76C135.622 24.5333 135.042 25.1267 134.282 25.54C133.536 25.9533 132.662 26.16 131.662 26.16ZM131.642 24.22C132.456 24.22 133.076 23.9533 133.502 23.42C133.929 22.8867 134.142 22.1 134.142 21.06C134.142 20.0333 133.929 19.2533 133.502 18.72C133.076 18.1733 132.462 17.9 131.662 17.9C130.862 17.9 130.242 18.1733 129.802 18.72C129.376 19.2533 129.162 20.0333 129.162 21.06C129.162 22.1 129.376 22.8867 129.802 23.42C130.229 23.9533 130.842 24.22 131.642 24.22ZM143.166 26.16C142.166 26.16 141.286 25.9533 140.526 25.54C139.78 25.1267 139.2 24.5333 138.786 23.76C138.373 22.9867 138.166 22.0867 138.166 21.06C138.166 20.0333 138.373 19.14 138.786 18.38C139.2 17.6067 139.78 17.0133 140.526 16.6C141.286 16.1867 142.166 15.98 143.166 15.98C144.166 15.98 145.04 16.1867 145.786 16.6C146.546 17.0133 147.126 17.6067 147.526 18.38C147.94 19.14 148.146 20.0333 148.146 21.06C148.146 22.0867 147.94 22.9867 147.526 23.76C147.126 24.5333 146.546 25.1267 145.786 25.54C145.04 25.9533 144.166 26.16 143.166 26.16ZM143.146 24.22C143.96 24.22 144.58 23.9533 145.006 23.42C145.433 22.8867 145.646 22.1 145.646 21.06C145.646 20.0333 145.433 19.2533 145.006 18.72C144.58 18.1733 143.966 17.9 143.166 17.9C142.366 17.9 141.746 18.1733 141.306 18.72C140.88 19.2533 140.666 20.0333 140.666 21.06C140.666 22.1 140.88 22.8867 141.306 23.42C141.733 23.9533 142.346 24.22 143.146 24.22ZM161.83 15.98C162.937 15.98 163.763 16.3133 164.31 16.98C164.857 17.6333 165.13 18.64 165.13 20V26H162.63V20.1C162.63 19.3533 162.503 18.8133 162.25 18.48C161.997 18.1333 161.59 17.96 161.03 17.96C160.363 17.96 159.843 18.1867 159.47 18.64C159.097 19.0933 158.91 19.7267 158.91 20.54V26H156.41V20.1C156.41 19.3533 156.283 18.8133 156.03 18.48C155.79 18.1333 155.383 17.96 154.81 17.96C154.157 17.96 153.643 18.1867 153.27 18.64C152.897 19.0933 152.71 19.7267 152.71 20.54V26H150.21V16.22H152.65V17.6C152.943 17.0667 153.35 16.6667 153.87 16.4C154.39 16.12 154.983 15.98 155.65 15.98C157.13 15.98 158.11 16.5933 158.59 17.82C158.897 17.2467 159.337 16.8 159.91 16.48C160.483 16.1467 161.123 15.98 161.83 15.98Z" fill="#3A89FF"/>
</svg>
